<svg aria-hidden="true" style="width:0;height:0;position:absolute;overflow:hidden" xmlns="http://www.w3.org/2000/svg"><defs><symbol id="icon-mail" viewBox="0 0 32 32"><path fill="#fff" style="fill:var(--color1,#fff)" d="m2.519 8.457 12 6.447c.403.216.924.319 1.449.319s1.047-.103 1.449-.32l12-6.445c.783-.421 1.521-2.057.087-2.057H2.433c-1.435 0-.696 1.636.085 2.057zm27.262 3.526-12.364 6.443c-.544.285-.924.319-1.449.319s-.907-.033-1.449-.319c-.544-.285-11.413-5.983-12.301-6.445-.624-.325-.617.056-.617.351v11.669c0 .672.907 1.6 1.6 1.6h25.6c.693 0 1.6-.928 1.6-1.6V12.334c0-.295.007-.677-.619-.351z"/></symbol><symbol id="icon-phone" viewBox="0 0 32 32"><path fill="#fff" style="fill:var(--color1,#fff)" d="M29.82 21.28c-1.625-1.305-3.116-1.94-4.559-1.94-2.085 0-3.587 1.327-4.947 2.687a.789.789 0 0 1-.557.23l-.041-.001h.002c-1.147 0-3.161-1.435-5.992-4.265-3.328-3.329-4.587-5.447-3.741-6.293 2.295-2.293 3.011-4.593-.501-8.961C8.227 1.172 6.996.412 5.723.412 4.006.412 2.7 1.785 1.548 2.996c-.2.209-.387.407-.573.591-1.3 1.303-1.3 4.141.003 7.596 1.431 3.791 4.253 7.915 7.949 11.611 2.859 2.859 5.968 5.168 8.995 6.72 2.64 1.353 5.204 2.079 7.215 2.079 1.26 0 2.281-.275 2.957-.833 1.371-1.133 3.924-3.233 3.907-5.729-.009-1.337-.743-2.592-2.18-3.747z"/></symbol></defs></svg>