<svg aria-hidden="true" style="width:0;height:0;position:absolute;overflow:hidden" xmlns="http://www.w3.org/2000/svg"><defs><symbol id="icon-arrow" viewBox="0 0 32 32"><path d="M26.971 7.771v15.806L3.915.521.521 3.915l23.056 23.056H7.771v4.8h24v-24h-4.8z"/></symbol><symbol id="icon-arrow-left" viewBox="0 0 32 32"><path d="m23.345 27.17-8.355-8.354L12.191 16l-.381 2.286 3.18-3.058 8.355-8.355-2.537-2.537L8.122 17.022l12.686 12.686 2.537-2.537z"/></symbol><symbol id="icon-arrow-right" viewBox="0 0 32 32"><path d="m8.655 4.83 8.355 8.354 2.799 2.815.381-2.286-3.18 3.058-8.355 8.355 2.537 2.537 12.686-12.686L11.192 2.291 8.655 4.828z"/></symbol><symbol id="icon-arrow-up" viewBox="0 0 32 32"><path fill="#fff" style="fill:var(--color1,#fff)" d="M24 24V10.828L4.786 30.042l-2.828-2.828L21.172 8H8V4h20v20h-4z"/></symbol><symbol id="icon-burger" viewBox="0 0 32 32"><path fill="#fff" style="fill:var(--color1,#fff)" d="M.134 4.666V9.2h31.733V4.666H.134zm18.823 9.068v4.533h12.909v-4.533H18.957zM9.545 22.8v4.534h22.321V22.8H9.545z"/></symbol><symbol id="icon-close" viewBox="0 0 32 32"><path fill="#fff" style="fill:var(--color1,#fff)" d="m0 28.086 3.206 3.206L31.291 3.207 28.086 0 0 28.085z"/><path fill="#fff" style="fill:var(--color1,#fff)" d="M3.206 0 0 3.208l28.085 28.085 3.207-3.206L3.206.001z"/></symbol><symbol id="icon-CSS" viewBox="0 0 32 32"><path fill="#fff" style="fill:var(--color1,#fff)" d="M29.028 0H2.97c-.623 0-1.092.529-1.037 1.152l2.379 26.671c.056.623.595 1.276 1.2 1.444l9.382 2.606c.605.168 1.592.169 2.197.003l9.394-2.602c.605-.168 1.144-.815 1.199-1.44l2.381-26.682A1.04 1.04 0 0 0 29.027 0zm-4.519 9.628c-.001.004-.004.008-.009.008s-.007-.002-.008-.006l-7.351 3.012a.237.237 0 0 0 .088.457h5.721a1.072 1.072 0 0 1 1.066 1.19v-.005l-.894 8.381a1.075 1.075 0 0 1-.702.895l-.007.002-6.07 2.136a1.061 1.061 0 0 1-.714 0l.008.002-6.041-2.093a1.077 1.077 0 0 1-.715-.894v-.005l-.405-3.795a.706.706 0 0 1 .702-.781h1.682c.362 0 .664.272.703.631l.248 2.333 4.182 1.454 4.202-1.468.513-4.838H8.828a.707.707 0 0 1-.702-.629L7.9 13.564a.704.704 0 0 1 .433-.73l7.603-3.135a.195.195 0 0 0-.072-.376H7.857a.47.47 0 0 1-.468-.42v-.002l-.231-2.204a.471.471 0 0 1 .468-.52h16.749a.471.471 0 0 1 .468.526v-.002l-.332 2.925z"/></symbol><symbol id="icon-file-document" viewBox="0 0 32 32"><path fill="#fff" style="fill:var(--color1,#fff)" d="M8 2.666a4 4 0 0 0-4 4v18.667a4 4 0 0 0 4 4h16a4 4 0 0 0 4-4V11.999a9.334 9.334 0 0 0-9.334-9.334H8zm12 2.8a6.705 6.705 0 0 1 4.762 3.825l.017.042H20V5.466z"/><path fill="#141414" style="fill:var(--color2,#141414)" d="M9.334 24h13.333v-2.666H9.334V24zm13.332-5.334H9.333V16h13.333v2.666zM9.334 13.334h5.333v-2.667H9.334v2.667z"/></symbol><symbol id="icon-Github" viewBox="0 0 32 32"><path fill="#fff" style="fill:var(--color1,#fff)" d="M16 .666A15.993 15.993 0 0 0 5.613 4.481l.023-.019C2.822 6.851.861 10.168.226 13.936l-.013.093a15.423 15.423 0 0 0-.207 2.549c0 3.044.859 5.887 2.347 8.301l-.039-.068c1.975 3.205 4.964 5.622 8.514 6.826l.113.033c.794.148 1.094-.345 1.094-.764s-.016-1.633-.021-2.961c-4.451.961-5.391-1.878-5.391-1.878-.726-1.844-1.776-2.329-1.776-2.329-1.452-.985.109-.967.109-.967 1.608.113 2.453 1.642 2.453 1.642 1.426 2.431 3.744 1.728 4.655 1.317.143-1.03.559-1.731 1.017-2.129-3.555-.4-7.29-1.765-7.29-7.861l-.001-.084a6.12 6.12 0 0 1 1.651-4.19l-.003.004c-.164-.4-.712-2.017.157-4.215 0 0 1.343-.426 4.401 1.631 1.201-.34 2.581-.535 4.006-.535s2.805.195 4.113.56l-.107-.026c3.055-2.058 4.396-1.631 4.396-1.631.871 2.192.323 3.809.159 4.216a6.103 6.103 0 0 1 1.651 4.185l-.001.095v-.005c0 6.109-3.744 7.455-7.304 7.847.572.496 1.083 1.463 1.083 2.948 0 2.129-.018 3.841-.018 4.365 0 .424.289.92 1.099.765 3.662-1.238 6.651-3.655 8.587-6.792l.04-.069c1.449-2.345 2.308-5.188 2.308-8.232 0-.901-.075-1.784-.22-2.644l.013.093c-.649-3.862-2.611-7.179-5.403-9.549l-.023-.019A15.974 15.974 0 0 0 16.011.665h-.008z"/><path fill="#fff" style="fill:var(--color1,#fff)" d="M6.059 23.51c-.035.079-.161.102-.264.047-.104-.056-.181-.158-.143-.24s.161-.102.264-.047c.104.056.183.161.143.24zm.649.718a.268.268 0 0 1-.328-.073v-.001c-.103-.111-.125-.263-.045-.332s.223-.037.326.074c.103.111.127.264.047.332zm.631.915c-.098.068-.265 0-.358-.137a.265.265 0 0 1 0-.38c.097-.065.264 0 .358.135s.095.313 0 .382zm.856.885c-.088.097-.264.071-.41-.061s-.181-.311-.093-.406c.088-.095.265-.069.416.061s.181.311.088.406zm1.2.516c-.04.124-.22.179-.4.127s-.299-.2-.264-.327c.034-.126.216-.184.399-.126s.299.198.265.327zm1.309.09c0 .129-.149.24-.339.242s-.347-.102-.347-.232.148-.24.339-.242c.191-.003.347.1.347.232zm1.219-.203c.024.129-.109.264-.299.296s-.358-.045-.383-.172c-.023-.126.115-.263.3-.298s.358.045.382.174z"/></symbol><symbol id="icon-html" viewBox="0 0 29 32"><path fill="#fff" style="fill:var(--color1,#fff)" d="M.999 0H.991a.481.481 0 0 0-.478.535V.533l2.479 27.811c.026.293.28.597.563.675l10.521 2.922c.283.079.747.079 1.031 0l10.553-2.926a.832.832 0 0 0 .563-.675L28.706.533A.481.481 0 0 0 28.228 0H.999zm22.426 6.378-.09 1.008-.065.729-.083.931c-.012.16-.027.297-.046.432l.004-.034h-13.02a.481.481 0 0 0-.478.535v-.002l.23 2.562a.598.598 0 0 0 .582.533h11.894c.262 0 .457.214.433.474s-.065.715-.09 1.008l-.737 8.259-.074.831c-.015.164-.259.363-.543.442l-6.739 1.869c-.005.001-.24-.063-.524-.141l-6.223-1.727a.832.832 0 0 1-.563-.675l-.4-4.497a.481.481 0 0 1 .478-.532h2.493c.294 0 .557.239.582.532l.157 1.76c.026.294.28.596.563.673l3.43.925.519-.139 2.916-.788a.823.823 0 0 0 .563-.672l.317-3.527a.481.481 0 0 0-.478-.532H7.22a.596.596 0 0 1-.581-.53v-.003l-.776-8.696-.09-1.007c-.023-.262.199-.475.493-.475h16.671c.294 0 .515.214.492.475z"/></symbol><symbol id="icon-JavaScript" viewBox="0 0 32 32"><path fill="#fff" style="fill:var(--color1,#fff)" d="M-.1-.1v32.2h32.2V-.1H-.1zm17.523 25.113c0 3.133-1.84 4.563-4.52 4.563-2.422 0-3.824-1.249-4.543-2.767l2.465-1.488c.475.841.906 1.553 1.948 1.553.992 0 1.624-.389 1.624-1.905V14.684h3.026v10.328zm7.159 4.563c-2.81 0-4.629-1.336-5.513-3.091l2.465-1.423c.647 1.057 1.495 1.84 2.983 1.84 1.25 0 2.056-.626 2.056-1.495 0-1.035-.82-1.402-2.207-2.013l-.754-.323c-2.185-.927-3.629-2.099-3.629-4.565 0-2.271 1.732-3.996 4.427-3.996 1.927 0 3.306.668 4.299 2.422l-2.358 1.51c-.517-.927-1.078-1.293-1.948-1.293-.883 0-1.444.561-1.444 1.294 0 .906.561 1.272 1.862 1.84l.755.323c2.574 1.099 4.018 2.229 4.018 4.758 0 2.717-2.143 4.211-5.011 4.211l-.001.001z"/></symbol><symbol id="icon-LinkedIn" viewBox="0 0 32 32"><path fill="#fff" style="fill:var(--color1,#fff)" d="M29.631 0H2.362C1.056 0 0 1.031 0 2.306v27.381C0 30.964 1.056 32 2.362 32h27.269C30.937 32 32 30.963 32 29.694V2.306C32 1.031 30.938 0 29.631 0zM9.494 27.269H4.745V11.993h4.75v15.275zM7.119 9.912h-.005a2.751 2.751 0 0 1 0-5.5h.005a2.75 2.75 0 1 1 0 5.5zM27.27 27.27h-4.744v-7.426c0-1.768-.031-4.05-2.468-4.05-2.469 0-2.844 1.932-2.844 3.926v7.55h-4.737V11.994h4.55v2.087h.063c.632-1.199 2.182-2.468 4.488-2.468 4.806 0 5.694 3.162 5.694 7.275v8.381z"/></symbol><symbol id="icon-mongodb" viewBox="0 0 32 32"><path fill="#fff" style="fill:var(--color1,#fff)" d="M18.625 3.563C17.275 1.962 16.131.36 15.879.017 15.867.006 15.851 0 15.833 0s-.033.006-.046.017c-.229.343-1.395 1.944-2.746 3.546-11.53 14.71 1.807 24.639 1.807 24.639l.115.069c.091 1.533.343 3.729.343 3.729h1.007s.252-2.196.344-3.729l.114-.092c.046.023 13.384-9.906 1.853-24.616zm-2.791 24.411s-.595-.504-.755-.778v-.023l.733-16.014c0-.046.068-.046.068 0l.733 16.014v.023c-.16.275-.778.778-.778.778z"/></symbol><symbol id="icon-mysql" viewBox="0 0 32 32"><path fill="#fff" style="fill:var(--color1,#fff)" d="M7.763 25.155H6.528a69.75 69.75 0 0 0-.387-6.189l.027.304h-.012l-1.882 5.885h-.941L1.462 19.27h-.01a95.756 95.756 0 0 0-.263 5.885H.063c.072-2.626.255-5.087.547-7.384h1.532l1.782 5.426h.011l1.793-5.426h1.466c.321 2.691.511 5.153.569 7.384zm5.36-5.449c-.503 2.73-1.167 4.714-1.991 5.953-.641.953-1.345 1.43-2.111 1.43-.205 0-.456-.062-.755-.184v-.659c.146.021.317.033.514.033.358 0 .645-.098.864-.296.262-.24.394-.51.394-.809 0-.205-.102-.623-.306-1.258l-1.357-4.211h1.214l.974 3.15c.218.715.31 1.215.273 1.498.532-1.421.904-2.971 1.116-4.648h1.17zm16.451 5.449h-3.51V17.77h1.181v6.475h2.33v.909zm-4.43.178-1.357-.67c.12-.099.235-.206.339-.33.577-.678.865-1.68.865-3.007 0-2.442-.959-3.665-2.877-3.665-.941 0-1.674.31-2.198.93-.577.678-.865 1.677-.865 2.998 0 1.298.255 2.25.765 2.854.467.547 1.171.821 2.112.821.351 0 .673-.042.967-.129l1.767 1.03.482-.831zm-4.396-1.656c-.299-.481-.449-1.254-.449-2.319 0-1.859.565-2.79 1.696-2.79.591 0 1.024.223 1.301.666.299.482.449 1.247.449 2.297 0 1.875-.565 2.812-1.695 2.812-.591 0-1.024-.222-1.301-.668zm-2.211-.57c0 .626-.23 1.14-.689 1.542-.459.401-1.076.602-1.848.602-.722 0-1.423-.231-2.101-.69l.318-.634c.583.292 1.111.438 1.585.438.445 0 .793-.099 1.045-.294.252-.197.402-.472.402-.82 0-.438-.306-.814-.867-1.127a67.885 67.885 0 0 1-2.182-1.219l.63.34c-.561-.408-.842-.847-.842-1.571 0-.598.209-1.081.628-1.449s.961-.552 1.624-.552c.686 0 1.309.184 1.87.547l-.285.634a3.545 3.545 0 0 0-1.419-.306h-.002c-.378 0-.671.091-.874.274a.914.914 0 0 0-.331.7c0 .437.313.817.889 1.137.525.285 1.585.889 1.585.889.575.408.863.843.863 1.56zm12.519-7.81c-.714-.018-1.266.054-1.731.25-.134.053-.347.053-.365.223.072.072.081.187.143.285.107.179.294.419.464.544.186.143.374.285.571.41.347.214.74.339 1.078.553.198.125.393.285.591.419.097.072.159.188.285.232v-.027c-.064-.08-.081-.196-.143-.285l-.268-.259a4.266 4.266 0 0 0-.915-.891l-.013-.009c-.285-.197-.91-.465-1.026-.793l-.018-.019c.196-.018.429-.089.616-.144.304-.08.58-.062.892-.142.143-.035.285-.081.429-.125v-.08c-.161-.161-.277-.374-.447-.526a11.943 11.943 0 0 0-1.424-1.069l-.048-.029c-.277-.179-.633-.294-.928-.446-.106-.054-.285-.08-.348-.17-.16-.196-.25-.454-.366-.687a21.869 21.869 0 0 1-.731-1.553c-.161-.348-.259-.696-.456-1.017-.919-1.517-1.917-2.435-3.452-3.336-.33-.188-.722-.268-1.141-.366l-.67-.035c-.143-.063-.286-.233-.41-.313-.509-.321-1.82-1.017-2.195-.098-.241.58.357 1.151.562 1.446.152.205.348.437.454.669.063.152.081.313.143.473.143.392.277.829.464 1.195.098.187.205.383.33.552.072.099.197.143.224.304-.125.177-.134.445-.206.669-.321 1.009-.195 2.257.259 2.998.142.223.482.714.936.525.402-.16.313-.669.429-1.114.026-.108.009-.179.063-.249v.017c.125.249.25.49.365.74.277.437.758.892 1.16 1.194.214.161.383.438.65.536v-.026h-.017c-.054-.08-.134-.115-.205-.178a4.359 4.359 0 0 1-.456-.523l-.008-.012a11.36 11.36 0 0 1-.969-1.56l-.03-.064c-.144-.277-.268-.579-.384-.856-.054-.107-.054-.269-.143-.322-.134.196-.33.366-.428.607-.17.384-.188.856-.25 1.348l-.035.017c-.285-.072-.383-.366-.491-.615-.267-.634-.312-1.651-.08-2.383.062-.187.33-.776.223-.954-.054-.171-.232-.269-.33-.403a3.49 3.49 0 0 1-.312-.548l-.009-.023c-.214-.499-.321-1.053-.552-1.552-.107-.232-.294-.473-.445-.687-.17-.241-.358-.41-.492-.696-.045-.098-.107-.259-.035-.366.017-.072.054-.098.125-.116.115-.097.445.026.561.081.33.134.607.258.883.445.125.09.259.259.419.304h.188c.285.063.606.017.874.097.473.153.901.376 1.285.616a7.973 7.973 0 0 1 2.762 3.008l.021.044c.106.205.152.392.249.606.188.438.421.883.607 1.312.188.419.366.847.633 1.195.134.188.671.285.911.383.177.08.454.152.615.25.303.187.605.401.891.607.142.107.589.33.615.508zm-9.099-7.752h-.017c-.124 0-.244.016-.359.047l.01-.002v.018h.017c.072.143.197.241.285.366.072.143.135.285.205.428l.017-.018c.125-.089.188-.232.188-.446-.054-.063-.063-.125-.107-.188-.053-.089-.168-.133-.241-.205zm9.949 17.608h.184v-.904h-.277l-.226.617-.246-.617h-.267v.904h.174v-.688h.01l.257.689h.133l.257-.689v.689zm-1.489 0h.195v-.751h.256v-.153h-.718v.153h.266v.751z"/></symbol><symbol id="icon-nodejs" viewBox="0 0 32 32"><path fill="#fff" style="fill:var(--color1,#fff)" d="M16 31.31a2.483 2.483 0 0 1-1.197-.316l.013.006-3.74-2.22c-.559-.312-.278-.425-.11-.482.76-.253.902-.308 1.688-.755.086-.057.198-.031.283.026l2.867 1.718c.113.056.255.056.339 0l11.223-6.497c.113-.054.168-.168.168-.309V9.511c0-.139-.056-.253-.168-.308l-11.223-6.47c-.111-.056-.253-.056-.339 0L4.578 9.201c-.111.055-.168.198-.168.308v12.967c0 .112.056.255.168.31l3.067 1.774c1.659.841 2.701-.145 2.701-1.127V10.636c0-.169.14-.339.337-.339h1.435c.166 0 .337.141.337.339v12.799c0 2.222-1.208 3.517-3.318 3.517-.647 0-1.153 0-2.588-.705l-2.952-1.685a2.38 2.38 0 0 1-1.183-2.055V9.539a2.37 2.37 0 0 1 1.183-2.054L14.814.988c.343-.187.75-.297 1.184-.297s.841.11 1.197.303l-.013-.007 11.219 6.497a2.37 2.37 0 0 1 1.183 2.049V22.506a2.38 2.38 0 0 1-1.172 2.049l-.011.006-11.219 6.495a2.888 2.888 0 0 1-1.185.253zm3.459-8.918c-4.922 0-5.934-2.251-5.934-4.161 0-.168.141-.339.337-.339h1.463c.169 0 .308.111.308.282.225 1.489.871 2.222 3.855 2.222 2.361 0 3.376-.536 3.376-1.802 0-.731-.284-1.265-3.967-1.63-3.065-.306-4.977-.986-4.977-3.432 0-2.277 1.912-3.628 5.12-3.628 3.599 0 5.371 1.241 5.595 3.937a.46.46 0 0 1-.087.255l.001-.001c-.056.056-.139.112-.223.112h-1.462a.326.326 0 0 1-.309-.249v-.002c-.339-1.551-1.21-2.055-3.514-2.055-2.59 0-2.899.9-2.899 1.575 0 .814.363 1.067 3.855 1.518 3.459.449 5.091 1.096 5.091 3.517-.031 2.477-2.053 3.881-5.628 3.881z"/></symbol><symbol id="icon-react" viewBox="0 0 32 32"><path fill="none" stroke="#fff" style="stroke:var(--color1,#fff)" stroke-width="2.087" d="M30.609 16c0 3.457-6.541 6.261-14.609 6.261S1.391 19.458 1.391 16 7.932 9.739 16 9.739 30.609 12.542 30.609 16z"/><path fill="none" stroke="#fff" style="stroke:var(--color1,#fff)" stroke-width="2.087" d="M8.909 28.872c3.098 1.65 8.786-2.776 12.703-9.884 3.917-7.11 4.579-14.21 1.481-15.861s-8.786 2.776-12.703 9.884c-3.917 7.11-4.58 14.21-1.482 15.861z"/><path fill="none" stroke="#fff" style="stroke:var(--color1,#fff)" stroke-width="2.087" d="M23.092 28.872c-3.099 1.65-8.786-2.776-12.703-9.884-3.917-7.11-4.58-14.21-1.482-15.861s8.786 2.776 12.703 9.884c3.917 7.11 4.58 14.21 1.482 15.861z"/><path fill="none" stroke="#fff" style="stroke:var(--color1,#fff)" stroke-width="2.087" d="M13.913 16a2.087 2.087 0 1 0 4.174 0 2.087 2.087 0 1 0-4.174 0z"/></symbol><symbol id="icon-Telegram" viewBox="0 0 32 32"><path fill="#fff" style="fill:var(--color1,#fff)" d="M32 16c0 8.837-7.163 16-16 16S0 24.837 0 16 7.163 0 16 0s16 7.163 16 16zm-15.427-4.188c-1.556.647-4.666 1.987-9.331 4.019-.758.301-1.154.596-1.19.883-.062.487.548.679 1.378.941l.35.111c.817.266 1.917.576 2.488.589.518.011 1.096-.202 1.735-.641 4.358-2.943 6.608-4.429 6.749-4.461.099-.022.237-.051.331.032s.084.241.074.283c-.061.257-2.454 2.483-3.693 3.634-.386.359-.661.614-.717.672-.125.13-.253.254-.376.372-.759.732-1.329 1.28.031 2.176.654.431 1.176.786 1.697 1.142.57.387 1.138.774 1.873 1.256.187.122.366.25.54.374.664.473 1.259.897 1.994.83.428-.04.87-.442 1.094-1.64.53-2.834 1.572-8.974 1.813-11.503a2.972 2.972 0 0 0-.028-.646l.002.016a.675.675 0 0 0-.228-.433c-.191-.156-.487-.189-.62-.186-.602.01-1.525.332-5.969 2.18z"/></symbol><symbol id="icon-Viber" viewBox="0 0 32 32"><path fill="#fff" style="fill:var(--color1,#fff)" d="M29.379 7.375c-.528-1.884-1.572-3.375-3.105-4.43-1.934-1.333-4.159-1.805-6.08-2.092-2.659-.397-5.067-.452-7.36-.172-2.152.263-3.77.685-5.249 1.363-2.896 1.329-4.634 3.484-5.164 6.399a36.237 36.237 0 0 0-.521 3.763l-.011.153c-.232 2.821-.022 5.318.644 7.632.648 2.256 1.782 3.869 3.466 4.927.43.27.977.465 1.51.654.266.094.522.187.745.285v4.559a1.079 1.079 0 0 0 1.833.772l4.206-4.09c.183-.209.183-.209.371-.214 1.437-.028 2.905-.083 4.365-.163 1.767-.097 3.816-.267 5.745-1.071 1.765-.737 3.054-1.907 3.827-3.476.807-1.638 1.287-3.411 1.467-5.422.315-3.535.09-6.603-.686-9.378zm-7.322 13.454c-.422.691-1.055 1.169-1.798 1.478-.544.227-1.099.179-1.635-.047-4.499-1.903-8.025-4.904-10.357-9.216-.48-.888-.815-1.855-1.199-2.794-.079-.194-.072-.42-.107-.63.033-1.517 1.197-2.371 2.372-2.63.449-.099.847.06 1.18.379a10.402 10.402 0 0 1 2.173 2.982l.027.062c.24.502.132.946-.278 1.32-.083.078-.173.15-.264.218-.934.703-1.071 1.233-.574 2.291.847 1.798 2.254 3.005 4.073 3.755.479.198.931.099 1.297-.289.049-.052.104-.102.141-.161.718-1.197 1.758-1.078 2.719-.395.631.448 1.243.92 1.868 1.377.948.698.941 1.354.362 2.3zM16.659 8.438c-.241 0-.484.019-.721.059a.738.738 0 0 1-.246-1.456l.004-.001a5.803 5.803 0 0 1 6.681 6.683.74.74 0 0 1-.854.604l.004.001a.74.74 0 0 1-.604-.853l-.001.004a4.326 4.326 0 0 0-4.26-5.043zm3.214 4.795a.737.737 0 0 1-1.474 0 2.216 2.216 0 0 0-2.212-2.213.737.737 0 0 1 0-1.474 3.692 3.692 0 0 1 3.687 3.687zm4.967.9a.737.737 0 0 1-.888.555l.005.001a.74.74 0 0 1-.556-.887l-.001.005c.103-.434.161-.931.161-1.443v-.003a6.513 6.513 0 0 0-6.506-6.506h-.005c-.511 0-1.009.059-1.486.17l.044-.009a.736.736 0 0 1-.88-.552l-.001-.005a.735.735 0 0 1 .557-.881 7.864 7.864 0 0 1 1.774-.199c4.401 0 7.981 3.581 7.981 7.981 0 .598-.067 1.195-.199 1.773z"/></symbol><symbol id="icon-Whatsapp" viewBox="0 0 32 32"><path fill="#fff" style="fill:var(--color1,#fff)" d="M2.824 23.536.643 31.494l8.145-2.138-5.964-5.821z"/><path fill="#fff" style="fill:var(--color1,#fff)" d="M16 .505C7.443.505.505 7.443.505 16S7.443 31.495 16 31.495c8.557 0 15.495-6.938 15.495-15.495S24.557.505 16 .505zm7.649 20.845c-.319.895-1.887 1.76-2.589 1.821-.709.066-1.37.319-4.607-.956-3.905-1.537-6.367-5.537-6.559-5.796-.192-.252-1.562-2.079-1.562-3.964 0-1.892.992-2.817 1.339-3.202.354-.385.769-.48 1.027-.48.252 0 .51 0 .733.011.276.007.577.024.865.661.342.757 1.087 2.655 1.183 2.847s.163.421.03.673c-.127.258-.193.415-.378.643-.193.222-.403.498-.577.666-.193.193-.39.403-.168.786.223.384.991 1.64 2.131 2.655 1.466 1.309 2.703 1.712 3.087 1.905s.607.163.829-.096c.229-.252.96-1.117 1.219-1.501.252-.385.51-.319.859-.193.353.127 2.24 1.057 2.625 1.25s.637.288.733.444c.099.161.099.93-.219 1.826z"/></symbol><symbol id="icon-arrow-left2" viewBox="0 0 32 32"><path d="m12.586 27.414-10-10a2 2 0 0 1 0-2.828l10-10a2 2 0 1 1 2.828 2.828L8.828 14H28a2 2 0 1 1 0 4H8.828l6.586 6.586c.39.39.586.902.586 1.414s-.195 1.024-.586 1.414a2 2 0 0 1-2.828 0z"/></symbol></defs></svg>