<svg aria-hidden="true" style="position: absolute; width: 0; height: 0; overflow: hidden;" version="1.1" xmlns="http://www.w3.org/2000/svg" xmlns:xlink="http://www.w3.org/1999/xlink">
<defs>
<symbol id="icon-mail" viewBox="0 0 32 32">
<path fill="#fff" style="fill: var(--color1, #fff)" d="M2.519 8.457l12 6.447c0.403 0.216 0.924 0.319 1.449 0.319s1.047-0.103 1.449-0.32l12-6.445c0.783-0.421 1.521-2.057 0.087-2.057h-27.071c-1.435 0-0.696 1.636 0.085 2.057zM29.781 11.983l-12.364 6.443c-0.544 0.285-0.924 0.319-1.449 0.319s-0.907-0.033-1.449-0.319c-0.544-0.285-11.413-5.983-12.301-6.445-0.624-0.325-0.617 0.056-0.617 0.351v11.669c0 0.672 0.907 1.6 1.6 1.6h25.6c0.693 0 1.6-0.928 1.6-1.6v-11.667c0-0.295 0.007-0.677-0.619-0.351z"></path>
</symbol>
<symbol id="icon-phone" viewBox="0 0 32 32">
<path fill="#fff" style="fill: var(--color1, #fff)" d="M29.82 21.28c-1.625-1.305-3.116-1.94-4.559-1.94-2.085 0-3.587 1.327-4.947 2.687-0.143 0.142-0.34 0.23-0.557 0.23-0.014 0-0.027-0-0.041-0.001l0.002 0c-1.147 0-3.161-1.435-5.992-4.265-3.328-3.329-4.587-5.447-3.741-6.293 2.295-2.293 3.011-4.593-0.501-8.961-1.257-1.565-2.488-2.325-3.761-2.325-1.717 0-3.023 1.373-4.175 2.584-0.2 0.209-0.387 0.407-0.573 0.591-1.3 1.303-1.3 4.141 0.003 7.596 1.431 3.791 4.253 7.915 7.949 11.611 2.859 2.859 5.968 5.168 8.995 6.72 2.64 1.353 5.204 2.079 7.215 2.079 1.26 0 2.281-0.275 2.957-0.833 1.371-1.133 3.924-3.233 3.907-5.729-0.009-1.337-0.743-2.592-2.18-3.747z"></path>
</symbol>
</defs>
</svg>
