<svg aria-hidden="true" style="position: absolute; width: 0; height: 0; overflow: hidden;" version="1.1" xmlns="http://www.w3.org/2000/svg" xmlns:xlink="http://www.w3.org/1999/xlink">
<defs>
<symbol id="icon-arrow" viewBox="0 0 32 32">
<path d="M26.971 7.771v15.806l-23.056-23.056-3.394 3.394 23.056 23.056h-15.806v4.8h24v-24h-4.8z"></path>
</symbol>
<symbol id="icon-arrow-left" viewBox="0 0 32 32">
<path d="M23.345 27.17l-8.355-8.354-2.799-2.816-0.381 2.286 3.18-3.058 8.355-8.355-2.537-2.537-12.686 12.686 12.686 12.686 2.537-2.537z"></path>
</symbol>
<symbol id="icon-arrow-right" viewBox="0 0 32 32">
<path d="M8.655 4.83l8.355 8.354 2.799 2.815 0.381-2.286-3.18 3.058-8.355 8.355 2.537 2.537 12.686-12.686-12.686-12.686-2.537 2.537z"></path>
</symbol>
<symbol id="icon-arrow-up" viewBox="0 0 32 32">
<path fill="#fff" style="fill: var(--color1, #fff)" d="M24 24v-13.172l-19.214 19.214-2.828-2.828 19.214-19.214h-13.172v-4h20v20h-4z"></path>
</symbol>
<symbol id="icon-burger" viewBox="0 0 32 32">
<path fill="#fff" style="fill: var(--color1, #fff)" d="M0.134 4.666v4.534h31.733v-4.534h-31.733zM18.957 13.734v4.533h12.909v-4.533h-12.909zM9.545 22.8v4.534h22.321v-4.534h-22.321z"></path>
</symbol>
<symbol id="icon-close" viewBox="0 0 32 32">
<path fill="#fff" style="fill: var(--color1, #fff)" d="M0 28.086l3.206 3.206 28.085-28.085-3.205-3.207-28.086 28.085z"></path>
<path fill="#fff" style="fill: var(--color1, #fff)" d="M3.206 0l-3.206 3.208 28.085 28.085 3.207-3.206-28.086-28.086z"></path>
</symbol>
<symbol id="icon-CSS" viewBox="0 0 32 32">
<path fill="#fff" style="fill: var(--color1, #fff)" d="M29.028 0h-26.058c-0.623 0-1.092 0.529-1.037 1.152l2.379 26.671c0.056 0.623 0.595 1.276 1.2 1.444l9.382 2.606c0.605 0.168 1.592 0.169 2.197 0.003l9.394-2.602c0.605-0.168 1.144-0.815 1.199-1.44l2.381-26.682c0.056-0.623-0.411-1.152-1.038-1.152zM24.509 9.628c-0.001 0.004-0.004 0.008-0.009 0.008s-0.007-0.002-0.008-0.006l-0-0-7.351 3.012c-0.088 0.036-0.149 0.121-0.149 0.22 0 0.131 0.106 0.237 0.237 0.237 0.001 0 0.002 0 0.003 0h5.718c0.592 0 1.072 0.48 1.072 1.072 0 0.040-0.002 0.079-0.006 0.118l0-0.005-0.894 8.381c-0.046 0.417-0.325 0.759-0.702 0.895l-0.007 0.002-6.070 2.136c-0.106 0.038-0.228 0.061-0.355 0.061-0.126 0-0.246-0.022-0.359-0.061l0.008 0.002-6.041-2.093c-0.387-0.137-0.669-0.48-0.715-0.894l-0-0.005-0.405-3.795c-0.003-0.023-0.004-0.049-0.004-0.075 0-0.39 0.316-0.706 0.706-0.706 0 0 0 0 0.001 0h1.681c0.362 0 0.664 0.272 0.703 0.631l0.248 2.333 4.182 1.454 4.202-1.468 0.513-4.838h-11.88c-0.36 0-0.662-0.271-0.702-0.629l-0.226-2.051c-0.035-0.313 0.142-0.611 0.433-0.73l7.603-3.135c0.072-0.030 0.123-0.099 0.123-0.181 0-0.108-0.087-0.195-0.195-0.195-0.001 0-0.002 0-0.002 0h-8.005c-0 0-0 0-0 0-0.243 0-0.443-0.184-0.468-0.42l-0-0.002-0.231-2.204c-0.002-0.015-0.003-0.032-0.003-0.049 0-0.26 0.211-0.471 0.471-0.471h16.749c0 0 0 0 0 0 0.26 0 0.471 0.211 0.471 0.471 0 0.019-0.001 0.037-0.003 0.055l0-0.002-0.332 2.925z"></path>
</symbol>
<symbol id="icon-file-document" viewBox="0 0 32 32">
<path fill="#fff" style="fill: var(--color1, #fff)" d="M8 2.666c-2.209 0-4 1.791-4 4v0 18.667c0 2.209 1.791 4 4 4v0h16c2.209 0 4-1.791 4-4v0-13.334c0-5.155-4.179-9.334-9.334-9.334h-10.666zM20 5.466c2.157 0.453 3.903 1.898 4.762 3.825l0.017 0.042h-4.779v-3.867z"></path>
<path fill="#141414" style="fill: var(--color2, #141414)" d="M9.334 24h13.333v-2.666h-13.333v2.666zM22.666 18.666h-13.333v-2.666h13.333v2.666zM9.334 13.334h5.333v-2.667h-5.333v2.667z"></path>
</symbol>
<symbol id="icon-Github" viewBox="0 0 32 32">
<path fill="#fff" style="fill: var(--color1, #fff)" d="M16 0.666c-3.961 0.001-7.587 1.436-10.387 3.815l0.023-0.019c-2.814 2.389-4.775 5.706-5.41 9.474l-0.013 0.093c-0.131 0.766-0.207 1.649-0.207 2.549 0 3.044 0.859 5.887 2.347 8.301l-0.039-0.068c1.975 3.205 4.964 5.622 8.514 6.826l0.113 0.033c0.794 0.148 1.094-0.345 1.094-0.764s-0.016-1.633-0.021-2.961c-4.451 0.961-5.391-1.878-5.391-1.878-0.726-1.844-1.776-2.329-1.776-2.329-1.452-0.985 0.109-0.967 0.109-0.967 1.608 0.113 2.453 1.642 2.453 1.642 1.426 2.431 3.744 1.728 4.655 1.317 0.143-1.030 0.559-1.731 1.017-2.129-3.555-0.4-7.29-1.765-7.29-7.861-0-0.025-0.001-0.054-0.001-0.084 0-1.62 0.627-3.093 1.651-4.19l-0.003 0.004c-0.164-0.4-0.712-2.017 0.157-4.215 0 0 1.343-0.426 4.401 1.631 1.201-0.34 2.581-0.535 4.006-0.535s2.805 0.195 4.113 0.56l-0.107-0.026c3.055-2.058 4.396-1.631 4.396-1.631 0.871 2.192 0.323 3.809 0.159 4.216 1.023 1.092 1.651 2.565 1.651 4.185 0 0.032-0 0.063-0.001 0.095l0-0.005c0 6.109-3.744 7.455-7.304 7.847 0.572 0.496 1.083 1.463 1.083 2.948 0 2.129-0.018 3.841-0.018 4.365 0 0.424 0.289 0.92 1.099 0.765 3.662-1.238 6.651-3.655 8.587-6.792l0.040-0.069c1.449-2.345 2.308-5.188 2.308-8.232 0-0.901-0.075-1.784-0.22-2.644l0.013 0.093c-0.649-3.862-2.611-7.179-5.403-9.549l-0.023-0.019c-2.777-2.358-6.403-3.793-10.364-3.793-0.001 0-0.002 0-0.003 0h-0.005z"></path>
<path fill="#fff" style="fill: var(--color1, #fff)" d="M6.059 23.51c-0.035 0.079-0.161 0.102-0.264 0.047-0.104-0.056-0.181-0.158-0.143-0.24s0.161-0.102 0.264-0.047c0.104 0.056 0.183 0.161 0.143 0.24zM6.708 24.228c-0.035 0.018-0.076 0.028-0.119 0.028-0.085 0-0.16-0.040-0.209-0.101l-0-0.001c-0.103-0.111-0.125-0.263-0.045-0.332s0.223-0.037 0.326 0.074c0.103 0.111 0.127 0.264 0.047 0.332zM7.339 25.143c-0.098 0.068-0.265 0-0.358-0.137-0.050-0.048-0.080-0.115-0.080-0.19s0.031-0.142 0.080-0.19l0-0c0.097-0.065 0.264 0 0.358 0.135s0.095 0.313 0 0.382zM8.195 26.028c-0.088 0.097-0.264 0.071-0.41-0.061s-0.181-0.311-0.093-0.406c0.088-0.095 0.265-0.069 0.416 0.061s0.181 0.311 0.088 0.406zM9.395 26.544c-0.040 0.124-0.22 0.179-0.4 0.127s-0.299-0.2-0.264-0.327c0.034-0.126 0.216-0.184 0.399-0.126s0.299 0.198 0.265 0.327zM10.704 26.634c0 0.129-0.149 0.24-0.339 0.242s-0.347-0.102-0.347-0.232 0.148-0.24 0.339-0.242c0.191-0.003 0.347 0.1 0.347 0.232zM11.923 26.431c0.024 0.129-0.109 0.264-0.299 0.296s-0.358-0.045-0.383-0.172c-0.023-0.126 0.115-0.263 0.3-0.298s0.358 0.045 0.382 0.174z"></path>
</symbol>
<symbol id="icon-html" viewBox="0 0 29 32">
<path fill="#fff" style="fill: var(--color1, #fff)" d="M0.999 0c-0.002-0-0.005-0-0.008-0-0.266 0-0.481 0.216-0.481 0.481 0 0.018 0.001 0.036 0.003 0.054l-0-0.002 2.479 27.811c0.026 0.293 0.28 0.597 0.563 0.675l10.521 2.922c0.283 0.079 0.747 0.079 1.031 0l10.553-2.926c0.284-0.079 0.537-0.383 0.563-0.675l2.483-27.807c0.002-0.015 0.003-0.033 0.003-0.052 0-0.266-0.216-0.481-0.481-0.481-0.003 0-0.006 0-0.009 0h-27.22zM23.425 6.378l-0.090 1.008-0.065 0.729-0.083 0.931c-0.012 0.16-0.027 0.297-0.046 0.432l0.004-0.034h-13.012c-0.002-0-0.005-0-0.008-0-0.266 0-0.481 0.216-0.481 0.481 0 0.018 0.001 0.036 0.003 0.054l-0-0.002 0.23 2.562c0.026 0.292 0.288 0.533 0.582 0.533h11.894c0.262 0 0.457 0.214 0.433 0.474s-0.065 0.715-0.090 1.008l-0.737 8.259-0.074 0.831c-0.015 0.164-0.259 0.363-0.543 0.442l-6.739 1.869c-0.005 0.001-0.24-0.063-0.524-0.141l-6.223-1.727c-0.284-0.079-0.537-0.383-0.563-0.675l-0.4-4.497c-0.002-0.015-0.003-0.033-0.003-0.051 0-0.266 0.216-0.481 0.481-0.481 0.003 0 0.006 0 0.009 0h2.484c0.294 0 0.557 0.239 0.582 0.532l0.157 1.76c0.026 0.294 0.28 0.596 0.563 0.673l3.43 0.925 0.519-0.139 2.916-0.788c0.284-0.077 0.538-0.379 0.563-0.672l0.317-3.527c0.002-0.015 0.003-0.033 0.003-0.051 0-0.266-0.216-0.481-0.481-0.481-0.003 0-0.006 0-0.009 0h-11.204c-0.302-0.006-0.549-0.236-0.581-0.53l-0-0.003-0.776-8.696-0.090-1.007c-0.023-0.262 0.199-0.475 0.493-0.475h16.671c0.294 0 0.515 0.214 0.492 0.475z"></path>
</symbol>
<symbol id="icon-JavaScript" viewBox="0 0 32 32">
<path fill="#fff" style="fill: var(--color1, #fff)" d="M-0.1-0.1v32.2h32.2v-32.2h-32.2zM17.423 25.013c0 3.133-1.84 4.563-4.52 4.563-2.422 0-3.824-1.249-4.543-2.767l2.465-1.488c0.475 0.841 0.906 1.553 1.948 1.553 0.992 0 1.624-0.389 1.624-1.905v-10.285h3.026v10.328zM24.582 29.576c-2.81 0-4.629-1.336-5.513-3.091l2.465-1.423c0.647 1.057 1.495 1.84 2.983 1.84 1.25 0 2.056-0.626 2.056-1.495 0-1.035-0.82-1.402-2.207-2.013l-0.754-0.323c-2.185-0.927-3.629-2.099-3.629-4.565 0-2.271 1.732-3.996 4.427-3.996 1.927 0 3.306 0.668 4.299 2.422l-2.358 1.51c-0.517-0.927-1.078-1.293-1.948-1.293-0.883 0-1.444 0.561-1.444 1.294 0 0.906 0.561 1.272 1.862 1.84l0.755 0.323c2.574 1.099 4.018 2.229 4.018 4.758 0 2.717-2.143 4.211-5.011 4.211l-0.001 0.001z"></path>
</symbol>
<symbol id="icon-LinkedIn" viewBox="0 0 32 32">
<path fill="#fff" style="fill: var(--color1, #fff)" d="M29.631 0h-27.269c-1.306 0-2.362 1.031-2.362 2.306v27.381c0 1.277 1.056 2.313 2.362 2.313h27.269c1.306 0 2.369-1.037 2.369-2.306v-27.388c0-1.275-1.062-2.306-2.369-2.306zM9.494 27.269h-4.749v-15.276h4.75v15.275zM7.119 9.912c-0.001 0-0.003 0-0.005 0-1.519 0-2.75-1.231-2.751-2.75v-0c0.001-1.519 1.232-2.75 2.751-2.75 0.002 0 0.003 0 0.005 0h-0c1.519 0 2.75 1.231 2.75 2.75s-1.231 2.75-2.75 2.75v0zM27.27 27.27h-4.744v-7.426c0-1.768-0.031-4.050-2.468-4.050-2.469 0-2.844 1.932-2.844 3.926v7.55h-4.737v-15.276h4.55v2.087h0.063c0.632-1.199 2.182-2.468 4.488-2.468 4.806 0 5.694 3.162 5.694 7.275v8.381z"></path>
</symbol>
<symbol id="icon-mongodb" viewBox="0 0 32 32">
<path fill="#fff" style="fill: var(--color1, #fff)" d="M18.625 3.563c-1.35-1.601-2.494-3.203-2.746-3.546-0.012-0.011-0.028-0.017-0.046-0.017s-0.033 0.006-0.046 0.017l0-0c-0.229 0.343-1.395 1.944-2.746 3.546-11.53 14.71 1.807 24.639 1.807 24.639l0.115 0.069c0.091 1.533 0.343 3.729 0.343 3.729h1.007s0.252-2.196 0.344-3.729l0.114-0.092c0.046 0.023 13.384-9.906 1.853-24.616zM15.834 27.974s-0.595-0.504-0.755-0.778v-0.023l0.733-16.014c0-0.046 0.068-0.046 0.068 0l0.733 16.014v0.023c-0.16 0.275-0.778 0.778-0.778 0.778z"></path>
</symbol>
<symbol id="icon-mysql" viewBox="0 0 32 32">
<path fill="#fff" style="fill: var(--color1, #fff)" d="M7.763 25.155h-1.235c-0.040-2.131-0.17-4.173-0.387-6.189l0.027 0.304h-0.012l-1.882 5.885h-0.941l-1.871-5.885h-0.010c-0.139 1.764-0.227 3.726-0.263 5.885h-1.126c0.072-2.626 0.255-5.087 0.547-7.384h1.532l1.782 5.426h0.011l1.793-5.426h1.466c0.321 2.691 0.511 5.153 0.569 7.384zM13.123 19.706c-0.503 2.73-1.167 4.714-1.991 5.953-0.641 0.953-1.345 1.43-2.111 1.43-0.205 0-0.456-0.062-0.755-0.184v-0.659c0.146 0.021 0.317 0.033 0.514 0.033 0.358 0 0.645-0.098 0.864-0.296 0.262-0.24 0.394-0.51 0.394-0.809 0-0.205-0.102-0.623-0.306-1.258l-1.357-4.211h1.214l0.974 3.15c0.218 0.715 0.31 1.215 0.273 1.498 0.532-1.421 0.904-2.971 1.116-4.648h1.17zM29.574 25.155h-3.51v-7.385h1.181v6.475h2.33v0.909zM25.144 25.333l-1.357-0.67c0.12-0.099 0.235-0.206 0.339-0.33 0.577-0.678 0.865-1.68 0.865-3.007 0-2.442-0.959-3.665-2.877-3.665-0.941 0-1.674 0.31-2.198 0.93-0.577 0.678-0.865 1.677-0.865 2.998 0 1.298 0.255 2.25 0.765 2.854 0.467 0.547 1.171 0.821 2.112 0.821 0.351 0 0.673-0.042 0.967-0.129l1.767 1.030 0.482-0.831zM20.748 23.677c-0.299-0.481-0.449-1.254-0.449-2.319 0-1.859 0.565-2.79 1.696-2.79 0.591 0 1.024 0.223 1.301 0.666 0.299 0.482 0.449 1.247 0.449 2.297 0 1.875-0.565 2.812-1.695 2.812-0.591 0-1.024-0.222-1.301-0.668zM18.537 23.107c0 0.626-0.23 1.14-0.689 1.542-0.459 0.401-1.076 0.602-1.848 0.602-0.722 0-1.423-0.231-2.101-0.69l0.318-0.634c0.583 0.292 1.111 0.438 1.585 0.438 0.445 0 0.793-0.099 1.045-0.294 0.252-0.197 0.402-0.472 0.402-0.82 0-0.438-0.306-0.814-0.867-1.127-1.169-0.632-1.676-0.924-2.182-1.219l0.63 0.34c-0.561-0.408-0.842-0.847-0.842-1.571 0-0.598 0.209-1.081 0.628-1.449s0.961-0.552 1.624-0.552c0.686 0 1.309 0.184 1.87 0.547l-0.285 0.634c-0.418-0.189-0.905-0.301-1.419-0.306h-0.002c-0.378 0-0.671 0.091-0.874 0.274-0.205 0.182-0.331 0.415-0.331 0.7 0 0.437 0.313 0.817 0.889 1.137 0.525 0.285 1.585 0.889 1.585 0.889 0.575 0.408 0.863 0.843 0.863 1.56zM31.056 15.297c-0.714-0.018-1.266 0.054-1.731 0.25-0.134 0.053-0.347 0.053-0.365 0.223 0.072 0.072 0.081 0.187 0.143 0.285 0.107 0.179 0.294 0.419 0.464 0.544 0.186 0.143 0.374 0.285 0.571 0.41 0.347 0.214 0.74 0.339 1.078 0.553 0.198 0.125 0.393 0.285 0.591 0.419 0.097 0.072 0.159 0.188 0.285 0.232v-0.027c-0.064-0.080-0.081-0.196-0.143-0.285l-0.268-0.259c-0.264-0.347-0.571-0.645-0.915-0.891l-0.013-0.009c-0.285-0.197-0.91-0.465-1.026-0.793l-0.018-0.019c0.196-0.018 0.429-0.089 0.616-0.144 0.304-0.080 0.58-0.062 0.892-0.142 0.143-0.035 0.285-0.081 0.429-0.125v-0.080c-0.161-0.161-0.277-0.374-0.447-0.526-0.437-0.383-0.918-0.745-1.424-1.069l-0.048-0.029c-0.277-0.179-0.633-0.294-0.928-0.446-0.106-0.054-0.285-0.080-0.348-0.17-0.16-0.196-0.25-0.454-0.366-0.687-0.258-0.49-0.509-1.034-0.731-1.553-0.161-0.348-0.259-0.696-0.456-1.017-0.919-1.517-1.917-2.435-3.452-3.336-0.33-0.188-0.722-0.268-1.141-0.366l-0.67-0.035c-0.143-0.063-0.286-0.233-0.41-0.313-0.509-0.321-1.82-1.017-2.195-0.098-0.241 0.58 0.357 1.151 0.562 1.446 0.152 0.205 0.348 0.437 0.454 0.669 0.063 0.152 0.081 0.313 0.143 0.473 0.143 0.392 0.277 0.829 0.464 1.195 0.098 0.187 0.205 0.383 0.33 0.552 0.072 0.099 0.197 0.143 0.224 0.304-0.125 0.177-0.134 0.445-0.206 0.669-0.321 1.009-0.195 2.257 0.259 2.998 0.142 0.223 0.482 0.714 0.936 0.525 0.402-0.16 0.313-0.669 0.429-1.114 0.026-0.108 0.009-0.179 0.063-0.249v0.017c0.125 0.249 0.25 0.49 0.365 0.74 0.277 0.437 0.758 0.892 1.16 1.194 0.214 0.161 0.383 0.438 0.65 0.536v-0.026h-0.017c-0.054-0.080-0.134-0.115-0.205-0.178-0.166-0.162-0.318-0.337-0.456-0.523l-0.008-0.012c-0.35-0.47-0.681-1.002-0.969-1.56l-0.030-0.064c-0.144-0.277-0.268-0.579-0.384-0.856-0.054-0.107-0.054-0.269-0.143-0.322-0.134 0.196-0.33 0.366-0.428 0.607-0.17 0.384-0.188 0.856-0.25 1.348l-0.035 0.017c-0.285-0.072-0.383-0.366-0.491-0.615-0.267-0.634-0.312-1.651-0.080-2.383 0.062-0.187 0.33-0.776 0.223-0.954-0.054-0.171-0.232-0.269-0.33-0.403-0.115-0.164-0.222-0.351-0.312-0.548l-0.009-0.023c-0.214-0.499-0.321-1.053-0.552-1.552-0.107-0.232-0.294-0.473-0.445-0.687-0.17-0.241-0.358-0.41-0.492-0.696-0.045-0.098-0.107-0.259-0.035-0.366 0.017-0.072 0.054-0.098 0.125-0.116 0.115-0.097 0.445 0.026 0.561 0.081 0.33 0.134 0.607 0.258 0.883 0.445 0.125 0.090 0.259 0.259 0.419 0.304h0.188c0.285 0.063 0.606 0.017 0.874 0.097 0.473 0.153 0.901 0.376 1.285 0.616 1.18 0.76 2.125 1.791 2.762 3.008l0.021 0.044c0.106 0.205 0.152 0.392 0.249 0.606 0.188 0.438 0.421 0.883 0.607 1.312 0.188 0.419 0.366 0.847 0.633 1.195 0.134 0.188 0.671 0.285 0.911 0.383 0.177 0.080 0.454 0.152 0.615 0.25 0.303 0.187 0.605 0.401 0.891 0.607 0.142 0.107 0.589 0.33 0.615 0.508zM21.957 7.545c-0.005-0-0.011-0-0.017-0-0.124 0-0.244 0.016-0.359 0.047l0.010-0.002v0.018h0.017c0.072 0.143 0.197 0.241 0.285 0.366 0.072 0.143 0.135 0.285 0.205 0.428l0.017-0.018c0.125-0.089 0.188-0.232 0.188-0.446-0.054-0.063-0.063-0.125-0.107-0.188-0.053-0.089-0.168-0.133-0.241-0.205zM31.906 25.153h0.184v-0.904h-0.277l-0.226 0.617-0.246-0.617h-0.267v0.904h0.174v-0.688h0.010l0.257 0.689h0.133l0.257-0.689v0.689zM30.417 25.153h0.195v-0.751h0.256v-0.153h-0.718v0.153h0.266v0.751z"></path>
</symbol>
<symbol id="icon-nodejs" viewBox="0 0 32 32">
<path fill="#fff" style="fill: var(--color1, #fff)" d="M16 31.31c-0.435-0.003-0.842-0.118-1.197-0.316l0.013 0.006-3.74-2.22c-0.559-0.312-0.278-0.425-0.11-0.482 0.76-0.253 0.902-0.308 1.688-0.755 0.086-0.057 0.198-0.031 0.283 0.026l2.867 1.718c0.113 0.056 0.255 0.056 0.339 0l11.223-6.497c0.113-0.054 0.168-0.168 0.168-0.309v-12.97c0-0.139-0.056-0.253-0.168-0.308l-11.223-6.47c-0.111-0.056-0.253-0.056-0.339 0l-11.226 6.468c-0.111 0.055-0.168 0.198-0.168 0.308v12.967c0 0.112 0.056 0.255 0.168 0.31l3.067 1.774c1.659 0.841 2.701-0.145 2.701-1.127v-12.797c0-0.169 0.14-0.339 0.337-0.339h1.435c0.166 0 0.337 0.141 0.337 0.339v12.799c0 2.222-1.208 3.517-3.318 3.517-0.647 0-1.153 0-2.588-0.705l-2.952-1.685c-0.712-0.419-1.183-1.182-1.183-2.055 0-0 0-0 0-0v0-12.968c0-0.844 0.449-1.632 1.183-2.054l11.217-6.497c0.343-0.187 0.75-0.297 1.184-0.297s0.841 0.11 1.197 0.303l-0.013-0.007 11.219 6.497c0.712 0.417 1.183 1.178 1.183 2.049 0 0.001 0 0.002 0 0.004v-0 12.969c-0.001 0.873-0.471 1.635-1.172 2.049l-0.011 0.006-11.219 6.495c-0.349 0.159-0.756 0.252-1.185 0.253h-0zM19.459 22.392c-4.922 0-5.934-2.251-5.934-4.161 0-0.168 0.141-0.339 0.337-0.339h1.463c0.169 0 0.308 0.111 0.308 0.282 0.225 1.489 0.871 2.222 3.855 2.222 2.361 0 3.376-0.536 3.376-1.802 0-0.731-0.284-1.265-3.967-1.63-3.065-0.306-4.977-0.986-4.977-3.432 0-2.277 1.912-3.628 5.12-3.628 3.599 0 5.371 1.241 5.595 3.937-0.003 0.095-0.035 0.183-0.087 0.255l0.001-0.001c-0.056 0.056-0.139 0.112-0.223 0.112h-1.462c-0.15-0.004-0.275-0.108-0.309-0.249l-0-0.002c-0.339-1.551-1.21-2.055-3.514-2.055-2.59 0-2.899 0.9-2.899 1.575 0 0.814 0.363 1.067 3.855 1.518 3.459 0.449 5.091 1.096 5.091 3.517-0.031 2.477-2.053 3.881-5.628 3.881z"></path>
</symbol>
<symbol id="icon-react" viewBox="0 0 32 32">
<path fill="none" stroke="#fff" style="stroke: var(--color1, #fff)" stroke-linejoin="miter" stroke-linecap="butt" stroke-miterlimit="4" stroke-width="2.0870" d="M30.609 16c0 3.457-6.541 6.261-14.609 6.261s-14.609-2.803-14.609-6.261 6.541-6.261 14.609-6.261 14.609 2.803 14.609 6.261z"></path>
<path fill="none" stroke="#fff" style="stroke: var(--color1, #fff)" stroke-linejoin="miter" stroke-linecap="butt" stroke-miterlimit="4" stroke-width="2.0870" d="M8.909 28.872c3.098 1.65 8.786-2.776 12.703-9.884 3.917-7.11 4.579-14.21 1.481-15.861s-8.786 2.776-12.703 9.884c-3.917 7.11-4.58 14.21-1.482 15.861z"></path>
<path fill="none" stroke="#fff" style="stroke: var(--color1, #fff)" stroke-linejoin="miter" stroke-linecap="butt" stroke-miterlimit="4" stroke-width="2.0870" d="M23.092 28.872c-3.099 1.65-8.786-2.776-12.703-9.884-3.917-7.11-4.58-14.21-1.482-15.861s8.786 2.776 12.703 9.884c3.917 7.11 4.58 14.21 1.482 15.861z"></path>
<path fill="none" stroke="#fff" style="stroke: var(--color1, #fff)" stroke-linejoin="miter" stroke-linecap="butt" stroke-miterlimit="4" stroke-width="2.0870" d="M13.913 16c0 1.153 0.934 2.087 2.087 2.087s2.087-0.934 2.087-2.087v0c0-1.153-0.934-2.087-2.087-2.087s-2.087 0.934-2.087 2.087v0z"></path>
</symbol>
<symbol id="icon-Telegram" viewBox="0 0 32 32">
<path fill="#fff" style="fill: var(--color1, #fff)" d="M32 16c0 8.837-7.163 16-16 16s-16-7.163-16-16 7.163-16 16-16 16 7.163 16 16zM16.573 11.812c-1.556 0.647-4.666 1.987-9.331 4.019-0.758 0.301-1.154 0.596-1.19 0.883-0.062 0.487 0.548 0.679 1.378 0.941 0.113 0.035 0.23 0.072 0.35 0.111 0.817 0.266 1.917 0.576 2.488 0.589 0.518 0.011 1.096-0.202 1.735-0.641 4.358-2.943 6.608-4.429 6.749-4.461 0.099-0.022 0.237-0.051 0.331 0.032s0.084 0.241 0.074 0.283c-0.061 0.257-2.454 2.483-3.693 3.634-0.386 0.359-0.661 0.614-0.717 0.672-0.125 0.13-0.253 0.254-0.376 0.372-0.759 0.732-1.329 1.28 0.031 2.176 0.654 0.431 1.176 0.786 1.697 1.142 0.57 0.387 1.138 0.774 1.873 1.256 0.187 0.122 0.366 0.25 0.54 0.374 0.664 0.473 1.259 0.897 1.994 0.83 0.428-0.040 0.87-0.442 1.094-1.64 0.53-2.834 1.572-8.974 1.813-11.503 0.004-0.059 0.007-0.128 0.007-0.197 0-0.153-0.012-0.303-0.035-0.449l0.002 0.016c-0.022-0.125-0.066-0.302-0.228-0.433-0.191-0.156-0.487-0.189-0.62-0.186-0.602 0.010-1.525 0.332-5.969 2.18z"></path>
</symbol>
<symbol id="icon-Viber" viewBox="0 0 32 32">
<path fill="#fff" style="fill: var(--color1, #fff)" d="M29.379 7.375c-0.528-1.884-1.572-3.375-3.105-4.43-1.934-1.333-4.159-1.805-6.080-2.092-2.659-0.397-5.067-0.452-7.36-0.172-2.152 0.263-3.77 0.685-5.249 1.363-2.896 1.329-4.634 3.484-5.164 6.399-0.213 1.065-0.401 2.404-0.521 3.763l-0.011 0.153c-0.232 2.821-0.022 5.318 0.644 7.632 0.648 2.256 1.782 3.869 3.466 4.927 0.43 0.27 0.977 0.465 1.51 0.654 0.266 0.094 0.522 0.187 0.745 0.285v4.558c0 0 0 0.001 0 0.001 0 0.596 0.483 1.079 1.079 1.079 0.293 0 0.559-0.117 0.754-0.307l4.206-4.090c0.183-0.209 0.183-0.209 0.371-0.214 1.437-0.028 2.905-0.083 4.365-0.163 1.767-0.097 3.816-0.267 5.745-1.071 1.765-0.737 3.054-1.907 3.827-3.476 0.807-1.638 1.287-3.411 1.467-5.422 0.315-3.535 0.090-6.603-0.686-9.378zM22.057 20.829c-0.422 0.691-1.055 1.169-1.798 1.478-0.544 0.227-1.099 0.179-1.635-0.047-4.499-1.903-8.025-4.904-10.357-9.216-0.48-0.888-0.815-1.855-1.199-2.794-0.079-0.194-0.072-0.42-0.107-0.63 0.033-1.517 1.197-2.371 2.372-2.63 0.449-0.099 0.847 0.060 1.18 0.379 0.893 0.855 1.631 1.862 2.173 2.982l0.027 0.062c0.24 0.502 0.132 0.946-0.278 1.32-0.083 0.078-0.173 0.15-0.264 0.218-0.934 0.703-1.071 1.233-0.574 2.291 0.847 1.798 2.254 3.005 4.073 3.755 0.479 0.198 0.931 0.099 1.297-0.289 0.049-0.052 0.104-0.102 0.141-0.161 0.718-1.197 1.758-1.078 2.719-0.395 0.631 0.448 1.243 0.92 1.868 1.377 0.948 0.698 0.941 1.354 0.362 2.3zM16.659 8.438c-0.241 0-0.484 0.019-0.721 0.059-0.037 0.006-0.079 0.010-0.121 0.010-0.408 0-0.738-0.331-0.738-0.738 0-0.365 0.265-0.668 0.613-0.728l0.004-0.001c0.29-0.050 0.623-0.078 0.964-0.079h0c3.196 0 5.797 2.6 5.797 5.796 0 0.324-0.028 0.65-0.080 0.966-0.061 0.351-0.364 0.615-0.728 0.615-0.043 0-0.085-0.004-0.126-0.011l0.004 0.001c-0.351-0.061-0.615-0.364-0.615-0.728 0-0.043 0.004-0.085 0.011-0.125l-0.001 0.004c0.038-0.215 0.060-0.463 0.060-0.717 0-2.387-1.934-4.323-4.32-4.326h-0zM19.873 13.233c0 0.407-0.33 0.737-0.737 0.737s-0.737-0.33-0.737-0.737v0c-0.002-1.221-0.991-2.211-2.212-2.213h-0c-0.407 0-0.737-0.33-0.737-0.737s0.33-0.737 0.737-0.737v0c2.035 0.003 3.685 1.652 3.687 3.687v0zM24.84 14.133c-0.076 0.332-0.369 0.575-0.718 0.575-0.059 0-0.116-0.007-0.17-0.020l0.005 0.001c-0.331-0.077-0.575-0.37-0.575-0.719 0-0.058 0.007-0.114 0.019-0.168l-0.001 0.005c0.103-0.434 0.161-0.931 0.161-1.443 0-0.001 0-0.002 0-0.003v0c0-3.587-2.918-6.506-6.506-6.506-0.001 0-0.003 0-0.005 0-0.511 0-1.009 0.059-1.486 0.17l0.044-0.009c-0.049 0.012-0.105 0.018-0.163 0.018-0.349 0-0.642-0.243-0.717-0.57l-0.001-0.005c-0.090-0.397 0.159-0.793 0.557-0.881 0.578-0.134 1.175-0.199 1.774-0.199 4.401 0 7.981 3.581 7.981 7.981 0 0.598-0.067 1.195-0.199 1.773z"></path>
</symbol>
<symbol id="icon-Whatsapp" viewBox="0 0 32 32">
<path fill="#fff" style="fill: var(--color1, #fff)" d="M2.824 23.536l-2.181 7.958 8.145-2.138-5.964-5.821z"></path>
<path fill="#fff" style="fill: var(--color1, #fff)" d="M16 0.505c-8.557 0-15.495 6.938-15.495 15.495s6.938 15.495 15.495 15.495c8.557 0 15.495-6.938 15.495-15.495s-6.938-15.495-15.495-15.495zM23.649 21.35c-0.319 0.895-1.887 1.76-2.589 1.821-0.709 0.066-1.37 0.319-4.607-0.956-3.905-1.537-6.367-5.537-6.559-5.796-0.192-0.252-1.562-2.079-1.562-3.964 0-1.892 0.992-2.817 1.339-3.202 0.354-0.385 0.769-0.48 1.027-0.48 0.252 0 0.51 0 0.733 0.011 0.276 0.007 0.577 0.024 0.865 0.661 0.342 0.757 1.087 2.655 1.183 2.847s0.163 0.421 0.030 0.673c-0.127 0.258-0.193 0.415-0.378 0.643-0.193 0.222-0.403 0.498-0.577 0.666-0.193 0.193-0.39 0.403-0.168 0.786 0.223 0.384 0.991 1.64 2.131 2.655 1.466 1.309 2.703 1.712 3.087 1.905s0.607 0.163 0.829-0.096c0.229-0.252 0.96-1.117 1.219-1.501 0.252-0.385 0.51-0.319 0.859-0.193 0.353 0.127 2.24 1.057 2.625 1.25s0.637 0.288 0.733 0.444c0.099 0.161 0.099 0.93-0.219 1.826z"></path>
</symbol>
<symbol id="icon-arrow-left2" viewBox="0 0 32 32">
<path d="M12.586 27.414l-10-10c-0.781-0.781-0.781-2.047 0-2.828l10-10c0.781-0.781 2.047-0.781 2.828 0s0.781 2.047 0 2.828l-6.586 6.586h19.172c1.105 0 2 0.895 2 2s-0.895 2-2 2h-19.172l6.586 6.586c0.39 0.39 0.586 0.902 0.586 1.414s-0.195 1.024-0.586 1.414c-0.781 0.781-2.047 0.781-2.828 0z"></path>
</symbol>
</defs>
</svg>
