<svg width="24" height="24" fill="none" xmlns="http://www.w3.org/2000/svg"><g clip-path="url(#a)"><path d="M22.365 15.96c-1.219-.979-2.337-1.455-3.419-1.455-1.564 0-2.69.995-3.71 2.015a.592.592 0 0 1-.447.172c-.86 0-2.371-1.076-4.494-3.199-2.496-2.497-3.44-4.085-2.806-4.72 1.721-1.72 2.258-3.445-.376-6.721C6.17.878 5.247.308 4.292.308c-1.288 0-2.267 1.03-3.131 1.938-.15.157-.29.305-.43.443-.975.977-.975 3.106.002 5.697 1.073 2.843 3.19 5.936 5.962 8.708 2.144 2.144 4.476 3.876 6.746 5.04 1.98 1.015 3.903 1.559 5.411 1.559.945 0 1.711-.206 2.218-.625 1.028-.85 2.943-2.425 2.93-4.297-.007-1.003-.557-1.944-1.635-2.81Z" fill="#fff"/></g><defs><clipPath id="a"><path fill="#fff" d="M0 0h24v24H0z"/></clipPath></defs></svg>