<svg width="46" height="46" fill="none" xmlns="http://www.w3.org/2000/svg"><g clip-path="url(#a)"><path d="M41.728 0H4.27C3.374 0 2.7.76 2.78 1.656l3.42 38.34c.08.896.855 1.834 1.725 2.076l13.487 3.746c.869.241 2.288.243 3.158.004l13.504-3.741c.87-.242 1.645-1.172 1.724-2.07L43.22 1.656C43.3.76 42.629 0 41.728 0Zm-6.496 13.84a.013.013 0 0 1-.025.003l-10.567 4.33a.34.34 0 0 0 .129.656h8.22a1.541 1.541 0 0 1 1.532 1.704l-1.285 12.048a1.541 1.541 0 0 1-1.02 1.29l-8.725 3.07a1.54 1.54 0 0 1-1.015.002l-8.684-3.008a1.541 1.541 0 0 1-1.028-1.292l-.582-5.456a1.015 1.015 0 0 1 1.01-1.123h2.416c.52 0 .955.391 1.01.907l.357 3.354 6.012 2.09 6.04-2.11.738-6.954H12.688c-.517 0-.952-.39-1.009-.904l-.325-2.948c-.05-.45.204-.878.622-1.05l10.93-4.506a.28.28 0 0 0-.107-.54H11.292a.677.677 0 0 1-.674-.607l-.332-3.168a.677.677 0 0 1 .673-.747h24.077a.677.677 0 0 1 .673.753l-.477 4.205Z" fill="#fff"/></g><defs><clipPath id="a"><path fill="#fff" d="M0 0h46v46H0z"/></clipPath></defs></svg>