<svg width="46" height="46" fill="none" xmlns="http://www.w3.org/2000/svg"><path fill-rule="evenodd" clip-rule="evenodd" d="M11.5 3.833a5.75 5.75 0 0 0-5.75 5.75v26.834a5.75 5.75 0 0 0 5.75 5.75h23a5.75 5.75 0 0 0 5.75-5.75V17.25c0-7.41-6.007-13.417-13.417-13.417H11.5Zm17.25 4.025a9.6 9.6 0 0 1 6.87 5.559h-6.87V7.858Z" fill="#fff"/><path fill-rule="evenodd" clip-rule="evenodd" d="M11.5 3.833a5.75 5.75 0 0 0-5.75 5.75v26.834a5.75 5.75 0 0 0 5.75 5.75h23a5.75 5.75 0 0 0 5.75-5.75V17.25c0-7.41-6.007-13.417-13.417-13.417H11.5Zm17.25 4.025a9.6 9.6 0 0 1 6.87 5.559h-6.87V7.858Z" fill="#fff"/><path d="M13.417 34.5h19.166v-3.833H13.417V34.5ZM32.583 26.833H13.417V23h19.166v3.833ZM13.417 19.167h7.666v-3.834h-7.666v3.834Z" fill="#141414"/></svg>