<svg width="46" height="46" fill="none" xmlns="http://www.w3.org/2000/svg"><g clip-path="url(#a)" fill="#fff"><path fill-rule="evenodd" clip-rule="evenodd" d="M23 .958A23.082 23.082 0 0 0 8.102 6.414 22.842 22.842 0 0 0 .306 20.167a22.765 22.765 0 0 0 3.021 15.499 22.98 22.98 0 0 0 12.4 9.86c1.142.213 1.572-.496 1.572-1.098 0-.602-.023-2.348-.03-4.256-6.399 1.382-7.75-2.7-7.75-2.7-1.044-2.651-2.553-3.348-2.553-3.348-2.087-1.416.157-1.39.157-1.39 2.311.163 3.526 2.36 3.526 2.36 2.05 3.495 5.382 2.484 6.692 1.893.206-1.48.804-2.488 1.462-3.06-5.11-.575-10.48-2.537-10.48-11.3a8.83 8.83 0 0 1 2.368-6.139c-.236-.575-1.024-2.9.225-6.059 0 0 1.93-.613 6.326 2.345a21.95 21.95 0 0 1 11.517 0c4.391-2.958 6.319-2.345 6.319-2.345 1.252 3.151.464 5.476.228 6.06a8.81 8.81 0 0 1 2.373 6.146c0 8.781-5.382 10.717-10.5 11.28.822.713 1.557 2.103 1.557 4.238 0 3.06-.026 5.522-.026 6.275 0 .61.415 1.322 1.58 1.099a22.98 22.98 0 0 0 12.4-9.863 22.764 22.764 0 0 0 3.02-15.5 22.842 22.842 0 0 0-7.8-13.754A23.082 23.082 0 0 0 23.008.958H23Z"/><path d="M8.71 33.795c-.05.113-.232.147-.38.068-.15-.08-.26-.227-.206-.345.053-.117.232-.147.38-.068.15.08.263.231.206.345ZM9.643 34.828a.383.383 0 0 1-.472-.106c-.148-.159-.179-.378-.065-.477.115-.098.32-.053.469.106.148.16.183.379.068.477ZM10.55 36.143c-.141.098-.381 0-.514-.197a.38.38 0 0 1 0-.546c.14-.094.38 0 .514.194.133.193.137.45 0 .549ZM11.78 37.415c-.126.14-.38.102-.59-.087-.21-.19-.26-.447-.134-.583.126-.137.381-.099.598.087.217.185.26.447.126.583ZM13.505 38.157c-.057.178-.316.258-.575.182-.259-.076-.43-.288-.38-.47.049-.181.311-.265.574-.181.263.083.43.284.381.47ZM15.387 38.286c0 .185-.214.345-.488.348-.274.004-.499-.147-.499-.333 0-.186.213-.345.488-.348.274-.004.499.144.499.333ZM17.139 37.994c.034.186-.156.379-.43.425-.275.045-.515-.065-.55-.247-.033-.181.165-.378.431-.428.267-.049.514.065.549.25Z"/></g><defs><clipPath id="a"><path fill="#fff" d="M0 0h46v46H0z"/></clipPath></defs></svg>