<svg width="42" height="46" fill="none" xmlns="http://www.w3.org/2000/svg"><path d="M1.436 0a.692.692 0 0 0-.7.766l3.563 39.978c.038.421.402.858.81.971l15.124 4.2c.407.113 1.074.113 1.482 0l15.17-4.206c.408-.113.772-.55.81-.971L41.264.766a.692.692 0 0 0-.7-.766H1.434Zm32.238 9.169-.13 1.449-.093 1.048-.12 1.338a9.4 9.4 0 0 1-.06.572H14.566a.692.692 0 0 0-.7.766l.33 3.683c.037.42.414.766.837.766H32.13c.376 0 .657.307.623.682-.035.376-.093 1.028-.13 1.449l-1.06 11.873-.106 1.195c-.021.236-.372.522-.78.635l-8.936 2.478-.752.208c-.007.001-.345-.09-.753-.203l-8.946-2.483c-.408-.113-.772-.55-.81-.97l-.575-6.465a.692.692 0 0 1 .7-.765h3.572c.423 0 .8.344.837.765l.226 2.53c.037.422.402.857.81.967l4.185 1.13.745.2.746-.2 4.192-1.133c.408-.11.773-.545.81-.966l.455-5.07a.692.692 0 0 0-.7-.765H10.377a.858.858 0 0 1-.836-.766l-1.116-12.5-.13-1.448c-.033-.376.286-.683.708-.683h23.964c.422 0 .74.307.707.683Z" fill="#fff"/></svg>