<svg width="46" height="46" fill="none" xmlns="http://www.w3.org/2000/svg"><g clip-path="url(#a)"><path d="M-.144-.144v46.288h46.288V-.144H-.144Zm25.19 36.1c0 4.504-2.645 6.56-6.498 6.56-3.481 0-5.497-1.796-6.53-3.977l3.544-2.139c.683 1.209 1.303 2.232 2.8 2.232 1.426 0 2.335-.559 2.335-2.738V21.11h4.35v14.846Zm10.29 6.56c-4.04 0-6.654-1.92-7.925-4.443l3.544-2.045c.93 1.52 2.149 2.645 4.288 2.645 1.797 0 2.956-.9 2.956-2.149 0-1.488-1.179-2.015-3.173-2.893l-1.084-.464c-3.141-1.333-5.217-3.017-5.217-6.562 0-3.265 2.49-5.744 6.364-5.744 2.77 0 4.753.96 6.18 3.481l-3.39 2.17c-.743-1.332-1.55-1.859-2.8-1.859-1.27 0-2.076.807-2.076 1.86 0 1.302.807 1.828 2.676 2.645l1.085.464c3.7 1.58 5.776 3.204 5.776 6.84 0 3.906-3.08 6.053-7.203 6.053l-.001.002Z" fill="#fff"/></g><defs><clipPath id="a"><path fill="#fff" d="M0 0h46v46H0z"/></clipPath></defs></svg>