<svg width="46" height="46" fill="none" xmlns="http://www.w3.org/2000/svg"><g clip-path="url(#a)"><path d="M42.595 0H3.396C1.518 0 0 1.482 0 3.315v39.36C0 44.51 1.518 46 3.396 46h39.199C44.473 46 46 44.509 46 42.685V3.315C46 1.482 44.473 0 42.595 0ZM13.647 39.199H6.82V17.24h6.828v21.958Zm-3.414-24.95a3.955 3.955 0 0 1-3.962-3.953 3.955 3.955 0 0 1 3.962-3.953 3.953 3.953 0 0 1 0 7.906ZM39.2 39.2h-6.82V28.525c0-2.542-.044-5.822-3.548-5.822-3.549 0-4.088 2.777-4.088 5.643v10.853h-6.81V17.24h6.54v3h.09c.908-1.724 3.136-3.548 6.451-3.548 6.909 0 8.185 4.546 8.185 10.458v12.048Z" fill="#fff"/></g><defs><clipPath id="a"><path fill="#fff" d="M0 0h46v46H0z"/></clipPath></defs></svg>