<svg width="46" height="46" fill="none" xmlns="http://www.w3.org/2000/svg"><g clip-path="url(#a)" fill="#fff"><path d="M11.16 36.16H9.385a99.101 99.101 0 0 0-.518-8.46H8.85l-2.705 8.46H4.793L2.104 27.7h-.015c-.2 2.536-.326 5.356-.378 8.46H.092c.104-3.775.367-7.312.786-10.615H3.08l2.562 7.8h.016l2.578-7.8h2.107c.462 3.868.734 7.407.818 10.614Zm7.705-7.832c-.723 3.925-1.677 6.777-2.862 8.558-.922 1.37-1.934 2.056-3.034 2.056-.294 0-.656-.089-1.085-.264v-.947c.21.03.456.047.739.047.514 0 .927-.141 1.242-.425.377-.345.566-.733.566-1.163 0-.294-.147-.896-.44-1.808l-1.95-6.054h1.745l1.4 4.528c.314 1.028.445 1.746.393 2.154.765-2.043 1.3-4.271 1.604-6.682h1.682ZM42.512 36.16h-5.046V25.544h1.697v9.308h3.35v1.306Zm-6.367.256-1.951-.963c.173-.143.338-.296.487-.475.83-.974 1.243-2.415 1.243-4.323 0-3.511-1.378-5.268-4.135-5.268-1.352 0-2.406.446-3.16 1.337-.829.975-1.243 2.41-1.243 4.309 0 1.866.367 3.234 1.1 4.102.672.787 1.683 1.18 3.036 1.18.505 0 .968-.061 1.39-.186l2.54 1.48.693-1.194Zm-6.32-2.38c-.43-.692-.646-1.802-.646-3.333 0-2.672.812-4.01 2.438-4.01.85 0 1.472.32 1.87.958.43.693.645 1.793.645 3.302 0 2.695-.812 4.042-2.437 4.042-.85 0-1.472-.319-1.87-.96Zm-3.178-.819c0 .9-.33 1.639-.99 2.217-.66.576-1.547.865-2.656.865-1.038 0-2.045-.332-3.02-.992l.457-.911c.838.42 1.597.629 2.279.629.64 0 1.14-.142 1.502-.423.362-.283.578-.678.578-1.179 0-.63-.44-1.17-1.247-1.62a190.764 190.764 0 0 1-2.231-1.264c-.807-.587-1.21-1.218-1.21-2.258 0-.86.3-1.554.903-2.083.603-.53 1.381-.794 2.335-.794.986 0 1.881.264 2.688.786l-.41.912a5.195 5.195 0 0 0-2.042-.44c-.544 0-.964.131-1.257.394-.294.261-.476.596-.476 1.006 0 .628.45 1.174 1.278 1.634.754.41 2.279 1.278 2.279 1.278.827.587 1.24 1.212 1.24 2.243ZM44.643 21.99c-1.026-.026-1.82.077-2.488.36-.192.076-.499.076-.525.32.104.103.116.269.206.41.154.257.422.602.667.782.268.206.538.41.821.59.499.308 1.064.488 1.55.795.284.18.565.41.849.603.139.103.228.27.41.333v-.039c-.092-.115-.117-.282-.206-.41l-.385-.372a6.102 6.102 0 0 0-1.334-1.294c-.41-.283-1.308-.668-1.475-1.14l-.026-.027c.282-.026.617-.128.885-.207.437-.115.834-.089 1.282-.204.206-.051.41-.116.617-.18v-.115c-.232-.231-.398-.538-.642-.756a17.08 17.08 0 0 0-2.116-1.578c-.398-.257-.91-.422-1.334-.641-.153-.077-.41-.115-.5-.244-.23-.282-.36-.653-.526-.987-.371-.705-.731-1.487-1.051-2.232-.232-.5-.372-1-.655-1.462-1.321-2.18-2.756-3.5-4.962-4.796-.474-.27-1.038-.385-1.64-.526l-.963-.05c-.205-.09-.411-.335-.59-.45-.732-.462-2.616-1.462-3.155-.141-.346.834.513 1.655.808 2.078.218.294.5.628.653.962.09.218.116.45.206.68.206.564.398 1.192.667 1.718.141.269.294.551.474.794.103.142.283.205.322.437-.18.255-.193.64-.296.961-.461 1.45-.281 3.244.373 4.31.204.32.693 1.026 1.346.755.578-.23.45-.962.616-1.602.038-.155.013-.257.09-.358v.025c.179.358.36.704.525 1.064.398.628 1.09 1.282 1.668 1.717.307.232.55.629.935.77v-.038h-.025c-.078-.115-.192-.166-.294-.256a6.233 6.233 0 0 1-.667-.769 16.513 16.513 0 0 1-1.436-2.335c-.207-.398-.385-.833-.552-1.23-.077-.154-.077-.386-.206-.463-.193.282-.474.526-.615.872-.244.552-.27 1.231-.36 1.938l-.05.025c-.409-.103-.55-.526-.706-.884-.384-.912-.449-2.374-.115-3.425.089-.269.475-1.115.321-1.371-.077-.246-.334-.386-.475-.579a5.21 5.21 0 0 1-.462-.82c-.307-.718-.462-1.514-.794-2.231-.154-.334-.423-.68-.64-.988-.245-.346-.514-.59-.707-1-.064-.141-.154-.372-.051-.526.025-.103.077-.141.18-.167.166-.14.64.038.807.116.475.192.873.371 1.27.64.18.13.372.373.602.437h.27c.41.09.871.025 1.257.14.68.22 1.295.54 1.847.885a11.38 11.38 0 0 1 4 4.387c.153.294.218.564.358.871.27.63.605 1.27.873 1.886.27.602.526 1.218.91 1.718.193.27.964.41 1.31.551.255.115.653.218.884.359.436.269.87.577 1.281.873.204.154.846.474.884.73Zm-13.08-11.144a1.994 1.994 0 0 0-.526.064v.026h.025c.103.205.283.347.41.526.104.205.194.41.295.615l.025-.026c.18-.128.27-.333.27-.641-.077-.09-.09-.18-.154-.27-.076-.128-.242-.191-.346-.294ZM45.865 36.157h.265v-1.3h-.398l-.325.887-.353-.887h-.384v1.3h.25v-.989h.015l.37.99h.191l.369-.99v.99Zm-2.14 0h.28v-1.08h.368v-.22h-1.032v.22h.383v1.08Z"/></g><defs><clipPath id="a"><path fill="#fff" d="M0 0h46v46H0z"/></clipPath></defs></svg>