<svg width="46" height="46" fill="none" xmlns="http://www.w3.org/2000/svg"><path d="M23 45.008a3.58 3.58 0 0 1-1.702-.445l-5.376-3.191c-.804-.448-.4-.611-.158-.693 1.093-.363 1.296-.443 2.427-1.086.123-.082.284-.044.407.037L22.72 42.1c.163.08.366.08.487 0l16.133-9.34c.163-.078.242-.242.242-.444V13.672c0-.2-.08-.364-.242-.443l-16.133-9.3c-.16-.081-.364-.081-.487 0L6.583 13.227c-.16.079-.242.284-.242.443v18.64c0 .161.081.366.242.445l4.409 2.55c2.385 1.209 3.883-.209 3.883-1.62V15.29c0-.243.201-.487.485-.487h2.063c.239 0 .485.202.485.487v18.398c0 3.194-1.736 5.056-4.77 5.056-.93 0-1.657 0-3.72-1.014l-4.243-2.422a3.416 3.416 0 0 1-1.7-2.954V13.712c0-1.213.646-2.346 1.7-2.952L21.3 1.421a3.608 3.608 0 0 1 3.403 0l16.128 9.34a3.401 3.401 0 0 1 1.7 2.95v18.643a3.42 3.42 0 0 1-1.7 2.954l-16.128 9.337a4.185 4.185 0 0 1-1.704.363Zm4.973-12.819c-7.076 0-8.53-3.236-8.53-5.982 0-.242.202-.487.484-.487h2.103c.243 0 .443.16.443.405.324 2.14 1.252 3.194 5.542 3.194 3.394 0 4.853-.771 4.853-2.59 0-1.051-.408-1.818-5.702-2.343-4.406-.44-7.155-1.417-7.155-4.933 0-3.273 2.749-5.215 7.36-5.215 5.173 0 7.721 1.784 8.043 5.66a.654.654 0 0 1-.124.364c-.081.08-.2.161-.321.161h-2.101a.468.468 0 0 1-.445-.361c-.487-2.23-1.74-2.954-5.052-2.954-3.723 0-4.168 1.294-4.168 2.264 0 1.17.522 1.534 5.541 2.182 4.973.646 7.318 1.576 7.318 5.056-.044 3.56-2.951 5.579-8.09 5.579Z" fill="#fff"/></svg>