<svg width="46" height="46" fill="none" xmlns="http://www.w3.org/2000/svg"><path d="M44 23c0 4.97-9.402 9-21 9S2 27.97 2 23s9.402-9 21-9 21 4.03 21 9Z" stroke="#fff" stroke-width="3"/><path d="M12.806 41.504c4.454 2.372 12.63-3.99 18.26-14.208 5.63-10.22 6.583-20.427 2.129-22.8-4.455-2.372-12.63 3.99-18.26 14.208-5.631 10.22-6.584 20.427-2.13 22.8Z" stroke="#fff" stroke-width="3"/><path d="M33.195 41.504c-4.455 2.372-12.63-3.99-18.26-14.208-5.631-10.22-6.584-20.427-2.13-22.8 4.455-2.372 12.63 3.99 18.26 14.208 5.631 10.22 6.584 20.427 2.13 22.8Z" stroke="#fff" stroke-width="3"/><path d="M20 23a3 3 0 1 0 6 0 3 3 0 0 0-6 0Z" stroke="#fff" stroke-width="3"/></svg>