<svg width="46" height="46" fill="none" xmlns="http://www.w3.org/2000/svg"><g clip-path="url(#a)"><path fill-rule="evenodd" clip-rule="evenodd" d="M46 23c0 12.703-10.297 23-23 23S0 35.703 0 23 10.297 0 23 0s23 10.297 23 23Zm-22.176-6.02c-2.237.93-6.708 2.856-13.413 5.777-1.089.433-1.659.857-1.71 1.27-.089.7.788.976 1.981 1.352.163.05.331.104.503.16 1.175.382 2.755.828 3.576.846.745.016 1.576-.291 2.494-.921 6.265-4.23 9.499-6.367 9.702-6.413.143-.032.341-.073.476.046.134.12.121.346.107.407-.087.37-3.528 3.569-5.308 5.224-.555.516-.95.882-1.03.966-.18.187-.364.365-.54.535-1.091 1.052-1.91 1.84.045 3.128.94.62 1.69 1.13 2.44 1.642.82.557 1.636 1.113 2.693 1.806.269.176.526.36.776.538.954.68 1.81 1.29 2.867 1.193.615-.057 1.25-.635 1.572-2.358.762-4.074 2.26-12.9 2.606-16.536a4.061 4.061 0 0 0-.038-.906c-.031-.179-.095-.434-.328-.622-.275-.224-.7-.271-.891-.268-.865.015-2.192.477-8.58 3.134Z" fill="#fff"/></g><defs><clipPath id="a"><path fill="#fff" d="M0 0h46v46H0z"/></clipPath></defs></svg>