<svg width="46" height="46" fill="none" xmlns="http://www.w3.org/2000/svg"><path d="M42.233 10.601c-.759-2.708-2.26-4.852-4.464-6.368-2.78-1.916-5.978-2.595-8.74-3.007-3.822-.57-7.284-.65-10.58-.247-3.093.378-5.42.984-7.546 1.96C6.74 4.85 4.242 7.947 3.48 12.138a57.547 57.547 0 0 0-.765 5.628c-.334 4.055-.031 7.645.926 10.971.932 3.243 2.562 5.561 4.982 7.083.618.388 1.405.669 2.17.94.383.135.75.269 1.071.41v6.552a1.551 1.551 0 0 0 2.634 1.112l6.046-5.88c.263-.301.263-.301.534-.307 2.066-.04 4.176-.12 6.274-.234 2.54-.139 5.485-.384 8.258-1.54 2.537-1.06 4.39-2.742 5.501-4.997 1.16-2.354 1.85-4.904 2.109-7.794.453-5.082.13-9.492-.986-13.481ZM31.707 29.942c-.607.993-1.516 1.68-2.585 2.125-.782.327-1.58.258-2.35-.068-6.467-2.736-11.536-7.05-14.888-13.248-.69-1.277-1.172-2.667-1.723-4.016-.113-.279-.104-.604-.154-.906.048-2.181 1.72-3.408 3.41-3.78.646-.142 1.217.086 1.696.545a14.928 14.928 0 0 1 3.163 4.376c.345.722.19 1.36-.399 1.897-.12.112-.249.216-.38.314-1.343 1.01-1.54 1.773-.825 3.293 1.218 2.585 3.24 4.32 5.855 5.398.688.284 1.338.142 1.865-.416.07-.075.15-.147.202-.232 1.032-1.721 2.527-1.55 3.908-.568.907.644 1.787 1.323 2.685 1.98 1.363 1.004 1.352 1.947.52 3.306Zm-7.759-17.813c-.347 0-.696.027-1.037.085a1.06 1.06 0 1 1-.349-2.094 8.638 8.638 0 0 1 1.386-.113c4.594 0 8.333 3.738 8.333 8.332 0 .466-.04.934-.115 1.389a1.062 1.062 0 0 1-1.222.87 1.062 1.062 0 0 1-.87-1.221 6.218 6.218 0 0 0-6.125-7.248Zm4.62 6.893a1.06 1.06 0 0 1-2.12 0 3.185 3.185 0 0 0-3.18-3.181 1.06 1.06 0 0 1 0-2.12 5.307 5.307 0 0 1 5.3 5.301Zm7.14 1.294a1.058 1.058 0 0 1-1.27.8 1.06 1.06 0 0 1-.8-1.268 9.39 9.39 0 0 0 .232-2.079c0-5.156-4.195-9.353-9.353-9.353a9.38 9.38 0 0 0-2.08.232 1.058 1.058 0 0 1-1.267-.8c-.13-.571.228-1.14.8-1.267.831-.192 1.689-.286 2.55-.286 6.326 0 11.473 5.147 11.473 11.473 0 .86-.096 1.718-.286 2.548Z" fill="#fff"/></svg>