<svg width="46" height="46" fill="none" xmlns="http://www.w3.org/2000/svg"><g clip-path="url(#a)" fill="#fff"><path d="M4.06 33.833.925 45.273 12.633 42.2 4.06 33.833Z"/><path d="M23 .726C10.7.726.726 10.7.726 23 .726 35.3 10.7 45.274 23 45.274c12.3 0 22.274-9.973 22.274-22.274C45.274 10.7 35.3.726 23 .726ZM33.996 30.69c-.459 1.286-2.712 2.53-3.722 2.617-1.019.095-1.97.459-6.623-1.374-5.613-2.21-9.152-7.96-9.429-8.332-.276-.362-2.246-2.988-2.246-5.698 0-2.72 1.426-4.05 1.925-4.603.509-.553 1.105-.69 1.476-.69.362 0 .733 0 1.054.016.397.01.83.035 1.244.95.492 1.088 1.563 3.816 1.7 4.093.137.277.234.605.043.967-.182.371-.277.596-.544.925-.277.319-.58.716-.83.957-.277.277-.56.58-.241 1.13.32.552 1.425 2.358 3.064 3.817 2.107 1.882 3.885 2.461 4.438 2.738.553.276.873.234 1.192-.138.329-.362 1.38-1.605 1.752-2.158.362-.553.733-.459 1.235-.277.508.182 3.22 1.52 3.773 1.797.553.276.915.414 1.054.638.143.232.143 1.337-.315 2.625Z"/></g><defs><clipPath id="a"><path fill="#fff" d="M0 0h46v46H0z"/></clipPath></defs></svg>